{"title":"Marguerite.2015.FRENCH.1080p.Bluray.x264.AC3-HazMatt","uid":14699984,"size":1864209242,"categoryP":"video","categoryS":"movies","magnet":"?xt=urn:btih:92aa1e51bf5948b0ac09e59437dc073ec2232c30&amp;dn=Marguerite.2015.FRENCH.1080p.Bluray.x264.AC3-HazMatt&amp;tr=udp%3A%2F%2Ftracker.leechers-paradise.org%3A6969&amp;tr=udp%3A%2F%2Fzer0day.ch%3A1337&amp;tr=udp%3A%2F%2Fopen.demonii.com%3A1337&amp;tr=udp%3A%2F%2Ftracker.coppersurfer.tk%3A6969&amp;tr=udp%3A%2F%2Fexodus.desync.com%3A6969","seeders":29,"leechers":1,"uploader":"noriegaRJ","files":1,"time":1464294118,"description":"Title: Marguerite\r\n\r\nRelease: Marguerite.2015.FRENCH.1080p.Bluray.x264.AC3-HazMatt\r\n\r\n\r\nIMDB Link:                                                                 \nhttp://www.imdb.com/title/tt4428788/\r\n\r\n\r\nPlot: Paris, 1920s. Marguerite Dumont is a wealthy woman, lover of the music and the opera. She loves to sing for her friends, although she's not a good singer. Both her friends and her husband have kept her fantasy. The problem begins when she decides to perform in front of a real audience.\r\n\r\n\r\nGeneral\r\nComplete name                            : Marguerite.2015.FRENCH.1080p.Bluray.x264.AC3-HazMatt\r\nFormat                                   : Matroska\r\nFormat version                           : Version 4 / Version 2\r\nFile size                                : 1.74 GiB\r\nDuration                                 : 2h 8mn\r\nOverall bit rate                         : 1 930 Kbps\r\nMovie name                               : Marguerite.2015.FRENCH.1080p.Bluray.x264.AC3-HazMatt\r\nEncoded date                             : UTC \r\nWriting application                      : mkvmerge v9.0.0 ('Power to progress') 64bit\r\nWriting library                          : Lavf55.12.0\r\n\r\nVideo\r\nID                                       : 1\r\nFormat                                   : AVC\r\nFormat/Info                              : Advanced Video Codec\r\nFormat profile                           :   \r\nFormat settings, CABAC                   : Yes\r\nFormat settings, ReFrames                : 5 frames\r\nCodec ID                                 : V_MPEG4/ISO/AVC\r\nDuration                                 : 2h 8mn\r\nBit rate                                 : 1 507 Kbps\r\nWidth                                    : 1 920 pixels\r\nHeight                                   : 800 pixels\r\nDisplay aspect ratio                     : 2.40:1\r\nFrame rate mode                          : Constant\r\nFrame rate                               : 23.976 fps\r\nColor space                              : YUV\r\nChroma subsampling                       : 4:2:0\r\nBit depth                                : 8 bits\r\nScan type                                : Progressive\r\nBits/(Pixel*Frame)                       : 0.041\r\nStream size                              : 1.36 GiB (78%)\r\nWriting library                          : x264 core 142 r2479 dd79a61\r\nLanguage                                 : French\r\nDefault                                  : Yes\r\nForced                                   : No\r\n\r\nAudio\r\nID                                       : 2\r\nFormat                                   : AC-3\r\nFormat/Info                              : Audio Coding 3\r\nMode extension                           : CM (complete main)\r\nFormat settings, Endianness              : Big\r\nCodec ID                                 : A_AC3\r\nDuration                                 : 2h 8mn\r\nBit rate mode                            : Constant\r\nBit rate                                 : 384 Kbps\r\nChannel count                            : 6 channels\r\nChannel positions                        : Front: L C R, Side: L R, LFE\r\nSampling rate                            : 48.0 KHz\r\nBit depth                                : 16 bits\r\nCompression mode                         : Lossy\r\nDelay relative to video                  : -5ms\r\nStream size                              : 354 MiB (20%)\r\nTitle                                    : Surround\r\nLanguage                                 : French\r\nDefault                                  : Yes\r\nForced                                   : No\r\n\r\n\r\n\r\n\r\nThanks to those helping me seed. Leechers remember, the community depends on you. If nobody shares, the freebies go away. Remember, the only reason you can download this free movie is because others are generous enough to keep sharing it with you. If nobody shares, everybody loses, so even if its for an extra hour or two after you get it, remember, others want to see it too, and they can't without you.\r\n\r\n\r\nSEE MY OTHERS UPLOADS:                                                                                         \nhttp://thepiratebay.se/user/noriegaRJ\r\n\r\nAND SEE THIS ANOTHERS UPLOADS FROM &quot;HORiZON-ArtSubs&quot;:                                         \nhttp://thepiratebay.se/user/artsubs                                         \nhttp://thepiratebay.se/user/lletaif","torrent":{"xt":"urn:btih:92aa1e51bf5948b0ac09e59437dc073ec2232c30","amp;dn":"Marguerite.2015.FRENCH.1080p.Bluray.x264.AC3-HazMatt","amp;tr":["udp%3A%2F%2Ftracker.leechers-paradise.org%3A6969","udp%3A%2F%2Fzer0day.ch%3A1337","udp%3A%2F%2Fopen.demonii.com%3A1337","udp%3A%2F%2Ftracker.coppersurfer.tk%3A6969","udp%3A%2F%2Fexodus.desync.com%3A6969"],"infoHash":"92aa1e51bf5948b0ac09e59437dc073ec2232c30","infoHashBuffer":{"type":"Buffer","data":[146,170,30,81,191,89,72,176,172,9,229,148,55,220,7,62,194,35,44,48]},"announce":[],"urlList":[]}}